<mxfile host="app.diagrams.net" modified="2024-04-24T09:50:01.344Z" agent="Mozilla/5.0 (Macintosh; Intel Mac OS X 10_15_7) AppleWebKit/537.36 (KHTML, like Gecko) Chrome/124.0.0.0 Safari/537.36" etag="cb3zwaG7dou2BMaO2TQ6" version="24.2.9" type="device">
  <diagram name="Page-1" id="gnuipvIJgQ8oWiMwfKtL">
    <mxGraphModel dx="714" dy="736" grid="1" gridSize="10" guides="1" tooltips="1" connect="1" arrows="1" fold="1" page="1" pageScale="1" pageWidth="827" pageHeight="1169" math="0" shadow="0">
      <root>
        <mxCell id="0" />
        <mxCell id="1" parent="0" />
        <mxCell id="CrO1KUGAZWbgiE9FsWsA-2" value="test_runs" style="swimlane;fontStyle=0;childLayout=stackLayout;horizontal=1;startSize=30;horizontalStack=0;resizeParent=1;resizeParentMax=0;resizeLast=0;collapsible=1;marginBottom=0;whiteSpace=wrap;html=1;rounded=1;" vertex="1" parent="1">
          <mxGeometry x="360" y="490" width="130" height="300" as="geometry">
            <mxRectangle x="400" y="530" width="60" height="30" as="alternateBounds" />
          </mxGeometry>
        </mxCell>
        <mxCell id="CrO1KUGAZWbgiE9FsWsA-3" value="id" style="text;strokeColor=default;fillColor=none;align=left;verticalAlign=middle;spacingLeft=4;spacingRight=4;overflow=hidden;points=[[0,0.5],[1,0.5]];portConstraint=eastwest;rotatable=0;whiteSpace=wrap;html=1;rounded=1;" vertex="1" parent="CrO1KUGAZWbgiE9FsWsA-2">
          <mxGeometry y="30" width="130" height="30" as="geometry" />
        </mxCell>
        <mxCell id="CrO1KUGAZWbgiE9FsWsA-4" value="source_file" style="text;strokeColor=default;fillColor=none;align=left;verticalAlign=middle;spacingLeft=4;spacingRight=4;overflow=hidden;points=[[0,0.5],[1,0.5]];portConstraint=eastwest;rotatable=0;whiteSpace=wrap;html=1;rounded=1;" vertex="1" parent="CrO1KUGAZWbgiE9FsWsA-2">
          <mxGeometry y="60" width="130" height="30" as="geometry" />
        </mxCell>
        <mxCell id="CrO1KUGAZWbgiE9FsWsA-5" value="started_at" style="text;strokeColor=default;fillColor=none;align=left;verticalAlign=middle;spacingLeft=4;spacingRight=4;overflow=hidden;points=[[0,0.5],[1,0.5]];portConstraint=eastwest;rotatable=0;whiteSpace=wrap;html=1;rounded=1;" vertex="1" parent="CrO1KUGAZWbgiE9FsWsA-2">
          <mxGeometry y="90" width="130" height="30" as="geometry" />
        </mxCell>
        <mxCell id="CrO1KUGAZWbgiE9FsWsA-6" value="finished_at" style="text;strokeColor=default;fillColor=none;align=left;verticalAlign=middle;spacingLeft=4;spacingRight=4;overflow=hidden;points=[[0,0.5],[1,0.5]];portConstraint=eastwest;rotatable=0;whiteSpace=wrap;html=1;rounded=1;" vertex="1" parent="CrO1KUGAZWbgiE9FsWsA-2">
          <mxGeometry y="120" width="130" height="30" as="geometry" />
        </mxCell>
        <mxCell id="CrO1KUGAZWbgiE9FsWsA-7" value="imported_at" style="text;strokeColor=default;fillColor=none;align=left;verticalAlign=middle;spacingLeft=4;spacingRight=4;overflow=hidden;points=[[0,0.5],[1,0.5]];portConstraint=eastwest;rotatable=0;whiteSpace=wrap;html=1;rounded=1;" vertex="1" parent="CrO1KUGAZWbgiE9FsWsA-2">
          <mxGeometry y="150" width="130" height="30" as="geometry" />
        </mxCell>
        <mxCell id="CrO1KUGAZWbgiE9FsWsA-8" value="hash" style="text;strokeColor=default;fillColor=none;align=left;verticalAlign=middle;spacingLeft=4;spacingRight=4;overflow=hidden;points=[[0,0.5],[1,0.5]];portConstraint=eastwest;rotatable=0;whiteSpace=wrap;html=1;rounded=1;" vertex="1" parent="CrO1KUGAZWbgiE9FsWsA-2">
          <mxGeometry y="180" width="130" height="30" as="geometry" />
        </mxCell>
        <mxCell id="CrO1KUGAZWbgiE9FsWsA-9" value="localized_id" style="text;strokeColor=default;fillColor=none;align=left;verticalAlign=middle;spacingLeft=4;spacingRight=4;overflow=hidden;points=[[0,0.5],[1,0.5]];portConstraint=eastwest;rotatable=0;whiteSpace=wrap;html=1;rounded=1;" vertex="1" parent="CrO1KUGAZWbgiE9FsWsA-2">
          <mxGeometry y="210" width="130" height="30" as="geometry" />
        </mxCell>
        <mxCell id="CrO1KUGAZWbgiE9FsWsA-10" value="test_site_id" style="text;strokeColor=default;fillColor=none;align=left;verticalAlign=middle;spacingLeft=4;spacingRight=4;overflow=hidden;points=[[0,0.5],[1,0.5]];portConstraint=eastwest;rotatable=0;whiteSpace=wrap;html=1;rounded=1;" vertex="1" parent="CrO1KUGAZWbgiE9FsWsA-2">
          <mxGeometry y="240" width="130" height="30" as="geometry" />
        </mxCell>
        <mxCell id="CrO1KUGAZWbgiE9FsWsA-11" value="build_number" style="text;strokeColor=default;fillColor=none;align=left;verticalAlign=middle;spacingLeft=4;spacingRight=4;overflow=hidden;points=[[0,0.5],[1,0.5]];portConstraint=eastwest;rotatable=0;whiteSpace=wrap;html=1;rounded=1;" vertex="1" parent="CrO1KUGAZWbgiE9FsWsA-2">
          <mxGeometry y="270" width="130" height="30" as="geometry" />
        </mxCell>
        <mxCell id="CrO1KUGAZWbgiE9FsWsA-12" value="localized" style="swimlane;fontStyle=0;childLayout=stackLayout;horizontal=1;startSize=30;horizontalStack=0;resizeParent=1;resizeParentMax=0;resizeLast=0;collapsible=1;marginBottom=0;whiteSpace=wrap;html=1;rounded=1;" vertex="1" parent="1">
          <mxGeometry x="160" y="630" width="120" height="90" as="geometry">
            <mxRectangle x="400" y="530" width="60" height="30" as="alternateBounds" />
          </mxGeometry>
        </mxCell>
        <mxCell id="CrO1KUGAZWbgiE9FsWsA-13" value="id" style="text;strokeColor=default;fillColor=none;align=left;verticalAlign=middle;spacingLeft=4;spacingRight=4;overflow=hidden;points=[[0,0.5],[1,0.5]];portConstraint=eastwest;rotatable=0;whiteSpace=wrap;html=1;rounded=1;" vertex="1" parent="CrO1KUGAZWbgiE9FsWsA-12">
          <mxGeometry y="30" width="120" height="30" as="geometry" />
        </mxCell>
        <mxCell id="CrO1KUGAZWbgiE9FsWsA-14" value="country_code" style="text;strokeColor=default;fillColor=none;align=left;verticalAlign=middle;spacingLeft=4;spacingRight=4;overflow=hidden;points=[[0,0.5],[1,0.5]];portConstraint=eastwest;rotatable=0;whiteSpace=wrap;html=1;rounded=1;" vertex="1" parent="CrO1KUGAZWbgiE9FsWsA-12">
          <mxGeometry y="60" width="120" height="30" as="geometry" />
        </mxCell>
        <mxCell id="CrO1KUGAZWbgiE9FsWsA-15" style="edgeStyle=orthogonalEdgeStyle;rounded=1;orthogonalLoop=1;jettySize=auto;html=1;" edge="1" parent="1" source="CrO1KUGAZWbgiE9FsWsA-13" target="CrO1KUGAZWbgiE9FsWsA-9">
          <mxGeometry relative="1" as="geometry" />
        </mxCell>
        <mxCell id="CrO1KUGAZWbgiE9FsWsA-16" value="test_site" style="swimlane;fontStyle=0;childLayout=stackLayout;horizontal=1;startSize=30;horizontalStack=0;resizeParent=1;resizeParentMax=0;resizeLast=0;collapsible=1;marginBottom=0;whiteSpace=wrap;html=1;rounded=1;" vertex="1" parent="1">
          <mxGeometry x="160" y="730" width="120" height="90" as="geometry">
            <mxRectangle x="400" y="530" width="60" height="30" as="alternateBounds" />
          </mxGeometry>
        </mxCell>
        <mxCell id="CrO1KUGAZWbgiE9FsWsA-17" value="id" style="text;strokeColor=default;fillColor=none;align=left;verticalAlign=middle;spacingLeft=4;spacingRight=4;overflow=hidden;points=[[0,0.5],[1,0.5]];portConstraint=eastwest;rotatable=0;whiteSpace=wrap;html=1;rounded=1;" vertex="1" parent="CrO1KUGAZWbgiE9FsWsA-16">
          <mxGeometry y="30" width="120" height="30" as="geometry" />
        </mxCell>
        <mxCell id="CrO1KUGAZWbgiE9FsWsA-18" value="label" style="text;strokeColor=default;fillColor=none;align=left;verticalAlign=middle;spacingLeft=4;spacingRight=4;overflow=hidden;points=[[0,0.5],[1,0.5]];portConstraint=eastwest;rotatable=0;whiteSpace=wrap;html=1;rounded=1;" vertex="1" parent="CrO1KUGAZWbgiE9FsWsA-16">
          <mxGeometry y="60" width="120" height="30" as="geometry" />
        </mxCell>
        <mxCell id="CrO1KUGAZWbgiE9FsWsA-19" value="test_runs_status" style="swimlane;fontStyle=0;childLayout=stackLayout;horizontal=1;startSize=30;horizontalStack=0;resizeParent=1;resizeParentMax=0;resizeLast=0;collapsible=1;marginBottom=0;whiteSpace=wrap;html=1;rounded=1;" vertex="1" parent="1">
          <mxGeometry x="590" y="460" width="130" height="210" as="geometry">
            <mxRectangle x="400" y="530" width="60" height="30" as="alternateBounds" />
          </mxGeometry>
        </mxCell>
        <mxCell id="CrO1KUGAZWbgiE9FsWsA-20" value="id" style="text;strokeColor=default;fillColor=none;align=left;verticalAlign=middle;spacingLeft=4;spacingRight=4;overflow=hidden;points=[[0,0.5],[1,0.5]];portConstraint=eastwest;rotatable=0;whiteSpace=wrap;html=1;rounded=1;" vertex="1" parent="CrO1KUGAZWbgiE9FsWsA-19">
          <mxGeometry y="30" width="130" height="30" as="geometry" />
        </mxCell>
        <mxCell id="CrO1KUGAZWbgiE9FsWsA-21" value="test_run_id" style="text;strokeColor=default;fillColor=none;align=left;verticalAlign=middle;spacingLeft=4;spacingRight=4;overflow=hidden;points=[[0,0.5],[1,0.5]];portConstraint=eastwest;rotatable=0;whiteSpace=wrap;html=1;rounded=1;" vertex="1" parent="CrO1KUGAZWbgiE9FsWsA-19">
          <mxGeometry y="60" width="130" height="30" as="geometry" />
        </mxCell>
        <mxCell id="CrO1KUGAZWbgiE9FsWsA-22" value="name" style="text;strokeColor=default;fillColor=none;align=left;verticalAlign=middle;spacingLeft=4;spacingRight=4;overflow=hidden;points=[[0,0.5],[1,0.5]];portConstraint=eastwest;rotatable=0;whiteSpace=wrap;html=1;rounded=1;" vertex="1" parent="CrO1KUGAZWbgiE9FsWsA-19">
          <mxGeometry y="90" width="130" height="30" as="geometry" />
        </mxCell>
        <mxCell id="CrO1KUGAZWbgiE9FsWsA-23" value="elapsed" style="text;strokeColor=default;fillColor=none;align=left;verticalAlign=middle;spacingLeft=4;spacingRight=4;overflow=hidden;points=[[0,0.5],[1,0.5]];portConstraint=eastwest;rotatable=0;whiteSpace=wrap;html=1;rounded=1;" vertex="1" parent="CrO1KUGAZWbgiE9FsWsA-19">
          <mxGeometry y="120" width="130" height="30" as="geometry" />
        </mxCell>
        <mxCell id="CrO1KUGAZWbgiE9FsWsA-24" value="failed" style="text;strokeColor=default;fillColor=none;align=left;verticalAlign=middle;spacingLeft=4;spacingRight=4;overflow=hidden;points=[[0,0.5],[1,0.5]];portConstraint=eastwest;rotatable=0;whiteSpace=wrap;html=1;rounded=1;" vertex="1" parent="CrO1KUGAZWbgiE9FsWsA-19">
          <mxGeometry y="150" width="130" height="30" as="geometry" />
        </mxCell>
        <mxCell id="CrO1KUGAZWbgiE9FsWsA-25" value="passed" style="text;strokeColor=default;fillColor=none;align=left;verticalAlign=middle;spacingLeft=4;spacingRight=4;overflow=hidden;points=[[0,0.5],[1,0.5]];portConstraint=eastwest;rotatable=0;whiteSpace=wrap;html=1;rounded=1;" vertex="1" parent="CrO1KUGAZWbgiE9FsWsA-19">
          <mxGeometry y="180" width="130" height="30" as="geometry" />
        </mxCell>
        <mxCell id="CrO1KUGAZWbgiE9FsWsA-26" style="edgeStyle=orthogonalEdgeStyle;rounded=1;orthogonalLoop=1;jettySize=auto;html=1;" edge="1" parent="1" source="CrO1KUGAZWbgiE9FsWsA-3" target="CrO1KUGAZWbgiE9FsWsA-21">
          <mxGeometry relative="1" as="geometry" />
        </mxCell>
        <mxCell id="CrO1KUGAZWbgiE9FsWsA-27" value="suites" style="swimlane;fontStyle=0;childLayout=stackLayout;horizontal=1;startSize=30;horizontalStack=0;resizeParent=1;resizeParentMax=0;resizeLast=0;collapsible=1;marginBottom=0;whiteSpace=wrap;html=1;rounded=1;" vertex="1" parent="1">
          <mxGeometry x="360" y="820" width="130" height="210" as="geometry">
            <mxRectangle x="360" y="820" width="60" height="30" as="alternateBounds" />
          </mxGeometry>
        </mxCell>
        <mxCell id="CrO1KUGAZWbgiE9FsWsA-28" value="id" style="text;strokeColor=default;fillColor=none;align=left;verticalAlign=middle;spacingLeft=4;spacingRight=4;overflow=hidden;points=[[0,0.5],[1,0.5]];portConstraint=eastwest;rotatable=0;whiteSpace=wrap;html=1;rounded=1;" vertex="1" parent="CrO1KUGAZWbgiE9FsWsA-27">
          <mxGeometry y="30" width="130" height="30" as="geometry" />
        </mxCell>
        <mxCell id="CrO1KUGAZWbgiE9FsWsA-29" style="edgeStyle=orthogonalEdgeStyle;rounded=1;orthogonalLoop=1;jettySize=auto;html=1;" edge="1" parent="CrO1KUGAZWbgiE9FsWsA-27" source="CrO1KUGAZWbgiE9FsWsA-30" target="CrO1KUGAZWbgiE9FsWsA-28">
          <mxGeometry relative="1" as="geometry" />
        </mxCell>
        <mxCell id="CrO1KUGAZWbgiE9FsWsA-30" value="suite_id" style="text;strokeColor=default;fillColor=none;align=left;verticalAlign=middle;spacingLeft=4;spacingRight=4;overflow=hidden;points=[[0,0.5],[1,0.5]];portConstraint=eastwest;rotatable=0;whiteSpace=wrap;html=1;rounded=1;" vertex="1" parent="CrO1KUGAZWbgiE9FsWsA-27">
          <mxGeometry y="60" width="130" height="30" as="geometry" />
        </mxCell>
        <mxCell id="CrO1KUGAZWbgiE9FsWsA-31" value="xml_id" style="text;strokeColor=default;fillColor=none;align=left;verticalAlign=middle;spacingLeft=4;spacingRight=4;overflow=hidden;points=[[0,0.5],[1,0.5]];portConstraint=eastwest;rotatable=0;whiteSpace=wrap;html=1;rounded=1;" vertex="1" parent="CrO1KUGAZWbgiE9FsWsA-27">
          <mxGeometry y="90" width="130" height="30" as="geometry" />
        </mxCell>
        <mxCell id="CrO1KUGAZWbgiE9FsWsA-32" value="name" style="text;strokeColor=default;fillColor=none;align=left;verticalAlign=middle;spacingLeft=4;spacingRight=4;overflow=hidden;points=[[0,0.5],[1,0.5]];portConstraint=eastwest;rotatable=0;whiteSpace=wrap;html=1;rounded=1;" vertex="1" parent="CrO1KUGAZWbgiE9FsWsA-27">
          <mxGeometry y="120" width="130" height="30" as="geometry" />
        </mxCell>
        <mxCell id="CrO1KUGAZWbgiE9FsWsA-33" value="source" style="text;strokeColor=default;fillColor=none;align=left;verticalAlign=middle;spacingLeft=4;spacingRight=4;overflow=hidden;points=[[0,0.5],[1,0.5]];portConstraint=eastwest;rotatable=0;whiteSpace=wrap;html=1;rounded=1;" vertex="1" parent="CrO1KUGAZWbgiE9FsWsA-27">
          <mxGeometry y="150" width="130" height="30" as="geometry" />
        </mxCell>
        <mxCell id="CrO1KUGAZWbgiE9FsWsA-34" value="doc" style="text;strokeColor=default;fillColor=none;align=left;verticalAlign=middle;spacingLeft=4;spacingRight=4;overflow=hidden;points=[[0,0.5],[1,0.5]];portConstraint=eastwest;rotatable=0;whiteSpace=wrap;html=1;rounded=1;" vertex="1" parent="CrO1KUGAZWbgiE9FsWsA-27">
          <mxGeometry y="180" width="130" height="30" as="geometry" />
        </mxCell>
        <mxCell id="CrO1KUGAZWbgiE9FsWsA-35" value="suites_status" style="swimlane;fontStyle=0;childLayout=stackLayout;horizontal=1;startSize=30;horizontalStack=0;resizeParent=1;resizeParentMax=0;resizeLast=0;collapsible=1;marginBottom=0;whiteSpace=wrap;html=1;rounded=1;" vertex="1" parent="1">
          <mxGeometry x="590" y="760" width="130" height="240" as="geometry">
            <mxRectangle x="400" y="530" width="60" height="30" as="alternateBounds" />
          </mxGeometry>
        </mxCell>
        <mxCell id="CrO1KUGAZWbgiE9FsWsA-36" value="id" style="text;strokeColor=default;fillColor=none;align=left;verticalAlign=middle;spacingLeft=4;spacingRight=4;overflow=hidden;points=[[0,0.5],[1,0.5]];portConstraint=eastwest;rotatable=0;whiteSpace=wrap;html=1;rounded=1;" vertex="1" parent="CrO1KUGAZWbgiE9FsWsA-35">
          <mxGeometry y="30" width="130" height="30" as="geometry" />
        </mxCell>
        <mxCell id="CrO1KUGAZWbgiE9FsWsA-37" value="test_run_id" style="text;strokeColor=default;fillColor=none;align=left;verticalAlign=middle;spacingLeft=4;spacingRight=4;overflow=hidden;points=[[0,0.5],[1,0.5]];portConstraint=eastwest;rotatable=0;whiteSpace=wrap;html=1;rounded=1;" vertex="1" parent="CrO1KUGAZWbgiE9FsWsA-35">
          <mxGeometry y="60" width="130" height="30" as="geometry" />
        </mxCell>
        <mxCell id="CrO1KUGAZWbgiE9FsWsA-38" value="suite_id" style="text;strokeColor=default;fillColor=none;align=left;verticalAlign=middle;spacingLeft=4;spacingRight=4;overflow=hidden;points=[[0,0.5],[1,0.5]];portConstraint=eastwest;rotatable=0;whiteSpace=wrap;html=1;rounded=1;" vertex="1" parent="CrO1KUGAZWbgiE9FsWsA-35">
          <mxGeometry y="90" width="130" height="30" as="geometry" />
        </mxCell>
        <mxCell id="CrO1KUGAZWbgiE9FsWsA-39" value="elapsed" style="text;strokeColor=default;fillColor=none;align=left;verticalAlign=middle;spacingLeft=4;spacingRight=4;overflow=hidden;points=[[0,0.5],[1,0.5]];portConstraint=eastwest;rotatable=0;whiteSpace=wrap;html=1;rounded=1;" vertex="1" parent="CrO1KUGAZWbgiE9FsWsA-35">
          <mxGeometry y="120" width="130" height="30" as="geometry" />
        </mxCell>
        <mxCell id="CrO1KUGAZWbgiE9FsWsA-40" value="failed" style="text;strokeColor=default;fillColor=none;align=left;verticalAlign=middle;spacingLeft=4;spacingRight=4;overflow=hidden;points=[[0,0.5],[1,0.5]];portConstraint=eastwest;rotatable=0;whiteSpace=wrap;html=1;rounded=1;" vertex="1" parent="CrO1KUGAZWbgiE9FsWsA-35">
          <mxGeometry y="150" width="130" height="30" as="geometry" />
        </mxCell>
        <mxCell id="CrO1KUGAZWbgiE9FsWsA-41" value="passed" style="text;strokeColor=default;fillColor=none;align=left;verticalAlign=middle;spacingLeft=4;spacingRight=4;overflow=hidden;points=[[0,0.5],[1,0.5]];portConstraint=eastwest;rotatable=0;whiteSpace=wrap;html=1;rounded=1;" vertex="1" parent="CrO1KUGAZWbgiE9FsWsA-35">
          <mxGeometry y="180" width="130" height="30" as="geometry" />
        </mxCell>
        <mxCell id="CrO1KUGAZWbgiE9FsWsA-42" value="status" style="text;strokeColor=default;fillColor=none;align=left;verticalAlign=middle;spacingLeft=4;spacingRight=4;overflow=hidden;points=[[0,0.5],[1,0.5]];portConstraint=eastwest;rotatable=0;whiteSpace=wrap;html=1;rounded=1;" vertex="1" parent="CrO1KUGAZWbgiE9FsWsA-35">
          <mxGeometry y="210" width="130" height="30" as="geometry" />
        </mxCell>
        <mxCell id="CrO1KUGAZWbgiE9FsWsA-43" style="edgeStyle=orthogonalEdgeStyle;rounded=1;orthogonalLoop=1;jettySize=auto;html=1;jumpStyle=arc;" edge="1" parent="1" source="CrO1KUGAZWbgiE9FsWsA-28" target="CrO1KUGAZWbgiE9FsWsA-38">
          <mxGeometry relative="1" as="geometry" />
        </mxCell>
        <mxCell id="CrO1KUGAZWbgiE9FsWsA-44" value="test_cases" style="swimlane;fontStyle=0;childLayout=stackLayout;horizontal=1;startSize=30;horizontalStack=0;resizeParent=1;resizeParentMax=0;resizeLast=0;collapsible=1;marginBottom=0;whiteSpace=wrap;html=1;rounded=1;" vertex="1" parent="1">
          <mxGeometry x="360" y="1090" width="130" height="210" as="geometry">
            <mxRectangle x="360" y="1090" width="60" height="30" as="alternateBounds" />
          </mxGeometry>
        </mxCell>
        <mxCell id="CrO1KUGAZWbgiE9FsWsA-45" value="id" style="text;strokeColor=default;fillColor=none;align=left;verticalAlign=middle;spacingLeft=4;spacingRight=4;overflow=hidden;points=[[0,0.5],[1,0.5]];portConstraint=eastwest;rotatable=0;whiteSpace=wrap;html=1;rounded=1;" vertex="1" parent="CrO1KUGAZWbgiE9FsWsA-44">
          <mxGeometry y="30" width="130" height="30" as="geometry" />
        </mxCell>
        <mxCell id="CrO1KUGAZWbgiE9FsWsA-46" value="suite_id" style="text;strokeColor=default;fillColor=none;align=left;verticalAlign=middle;spacingLeft=4;spacingRight=4;overflow=hidden;points=[[0,0.5],[1,0.5]];portConstraint=eastwest;rotatable=0;whiteSpace=wrap;html=1;rounded=1;" vertex="1" parent="CrO1KUGAZWbgiE9FsWsA-44">
          <mxGeometry y="60" width="130" height="30" as="geometry" />
        </mxCell>
        <mxCell id="CrO1KUGAZWbgiE9FsWsA-47" value="xml_id" style="text;strokeColor=default;fillColor=none;align=left;verticalAlign=middle;spacingLeft=4;spacingRight=4;overflow=hidden;points=[[0,0.5],[1,0.5]];portConstraint=eastwest;rotatable=0;whiteSpace=wrap;html=1;rounded=1;" vertex="1" parent="CrO1KUGAZWbgiE9FsWsA-44">
          <mxGeometry y="90" width="130" height="30" as="geometry" />
        </mxCell>
        <mxCell id="CrO1KUGAZWbgiE9FsWsA-48" value="name" style="text;strokeColor=default;fillColor=none;align=left;verticalAlign=middle;spacingLeft=4;spacingRight=4;overflow=hidden;points=[[0,0.5],[1,0.5]];portConstraint=eastwest;rotatable=0;whiteSpace=wrap;html=1;rounded=1;" vertex="1" parent="CrO1KUGAZWbgiE9FsWsA-44">
          <mxGeometry y="120" width="130" height="30" as="geometry" />
        </mxCell>
        <mxCell id="CrO1KUGAZWbgiE9FsWsA-49" value="timeout" style="text;strokeColor=default;fillColor=none;align=left;verticalAlign=middle;spacingLeft=4;spacingRight=4;overflow=hidden;points=[[0,0.5],[1,0.5]];portConstraint=eastwest;rotatable=0;whiteSpace=wrap;html=1;rounded=1;" vertex="1" parent="CrO1KUGAZWbgiE9FsWsA-44">
          <mxGeometry y="150" width="130" height="30" as="geometry" />
        </mxCell>
        <mxCell id="CrO1KUGAZWbgiE9FsWsA-50" value="doc" style="text;strokeColor=default;fillColor=none;align=left;verticalAlign=middle;spacingLeft=4;spacingRight=4;overflow=hidden;points=[[0,0.5],[1,0.5]];portConstraint=eastwest;rotatable=0;whiteSpace=wrap;html=1;rounded=1;" vertex="1" parent="CrO1KUGAZWbgiE9FsWsA-44">
          <mxGeometry y="180" width="130" height="30" as="geometry" />
        </mxCell>
        <mxCell id="CrO1KUGAZWbgiE9FsWsA-51" value="test_cases_status" style="swimlane;fontStyle=0;childLayout=stackLayout;horizontal=1;startSize=30;horizontalStack=0;resizeParent=1;resizeParentMax=0;resizeLast=0;collapsible=1;marginBottom=0;whiteSpace=wrap;html=1;rounded=1;" vertex="1" parent="1">
          <mxGeometry x="590" y="1060" width="130" height="210" as="geometry">
            <mxRectangle x="400" y="530" width="60" height="30" as="alternateBounds" />
          </mxGeometry>
        </mxCell>
        <mxCell id="CrO1KUGAZWbgiE9FsWsA-52" value="id" style="text;strokeColor=default;fillColor=none;align=left;verticalAlign=middle;spacingLeft=4;spacingRight=4;overflow=hidden;points=[[0,0.5],[1,0.5]];portConstraint=eastwest;rotatable=0;whiteSpace=wrap;html=1;rounded=1;" vertex="1" parent="CrO1KUGAZWbgiE9FsWsA-51">
          <mxGeometry y="30" width="130" height="30" as="geometry" />
        </mxCell>
        <mxCell id="CrO1KUGAZWbgiE9FsWsA-53" value="test_case_id" style="text;strokeColor=default;fillColor=none;align=left;verticalAlign=middle;spacingLeft=4;spacingRight=4;overflow=hidden;points=[[0,0.5],[1,0.5]];portConstraint=eastwest;rotatable=0;whiteSpace=wrap;html=1;rounded=1;" vertex="1" parent="CrO1KUGAZWbgiE9FsWsA-51">
          <mxGeometry y="60" width="130" height="30" as="geometry" />
        </mxCell>
        <mxCell id="CrO1KUGAZWbgiE9FsWsA-54" value="test_run_id" style="text;strokeColor=default;fillColor=none;align=left;verticalAlign=middle;spacingLeft=4;spacingRight=4;overflow=hidden;points=[[0,0.5],[1,0.5]];portConstraint=eastwest;rotatable=0;whiteSpace=wrap;html=1;rounded=1;" vertex="1" parent="CrO1KUGAZWbgiE9FsWsA-51">
          <mxGeometry y="90" width="130" height="30" as="geometry" />
        </mxCell>
        <mxCell id="CrO1KUGAZWbgiE9FsWsA-55" value="status" style="text;strokeColor=default;fillColor=none;align=left;verticalAlign=middle;spacingLeft=4;spacingRight=4;overflow=hidden;points=[[0,0.5],[1,0.5]];portConstraint=eastwest;rotatable=0;whiteSpace=wrap;html=1;rounded=1;" vertex="1" parent="CrO1KUGAZWbgiE9FsWsA-51">
          <mxGeometry y="120" width="130" height="30" as="geometry" />
        </mxCell>
        <mxCell id="CrO1KUGAZWbgiE9FsWsA-56" value="elapsed" style="text;strokeColor=default;fillColor=none;align=left;verticalAlign=middle;spacingLeft=4;spacingRight=4;overflow=hidden;points=[[0,0.5],[1,0.5]];portConstraint=eastwest;rotatable=0;whiteSpace=wrap;html=1;rounded=1;" vertex="1" parent="CrO1KUGAZWbgiE9FsWsA-51">
          <mxGeometry y="150" width="130" height="30" as="geometry" />
        </mxCell>
        <mxCell id="CrO1KUGAZWbgiE9FsWsA-57" value="message" style="text;strokeColor=default;fillColor=none;align=left;verticalAlign=middle;spacingLeft=4;spacingRight=4;overflow=hidden;points=[[0,0.5],[1,0.5]];portConstraint=eastwest;rotatable=0;whiteSpace=wrap;html=1;rounded=1;" vertex="1" parent="CrO1KUGAZWbgiE9FsWsA-51">
          <mxGeometry y="180" width="130" height="30" as="geometry" />
        </mxCell>
        <mxCell id="CrO1KUGAZWbgiE9FsWsA-58" style="edgeStyle=orthogonalEdgeStyle;rounded=1;orthogonalLoop=1;jettySize=auto;html=1;jumpStyle=arc;" edge="1" parent="1" source="CrO1KUGAZWbgiE9FsWsA-45" target="CrO1KUGAZWbgiE9FsWsA-53">
          <mxGeometry relative="1" as="geometry" />
        </mxCell>
        <mxCell id="CrO1KUGAZWbgiE9FsWsA-59" style="edgeStyle=orthogonalEdgeStyle;rounded=1;orthogonalLoop=1;jettySize=auto;html=1;jumpStyle=arc;" edge="1" parent="1" source="CrO1KUGAZWbgiE9FsWsA-3" target="CrO1KUGAZWbgiE9FsWsA-37">
          <mxGeometry relative="1" as="geometry" />
        </mxCell>
        <mxCell id="CrO1KUGAZWbgiE9FsWsA-60" style="edgeStyle=orthogonalEdgeStyle;rounded=1;orthogonalLoop=1;jettySize=auto;html=1;jumpStyle=arc;" edge="1" parent="1" source="CrO1KUGAZWbgiE9FsWsA-3" target="CrO1KUGAZWbgiE9FsWsA-54">
          <mxGeometry relative="1" as="geometry" />
        </mxCell>
        <mxCell id="CrO1KUGAZWbgiE9FsWsA-61" style="edgeStyle=orthogonalEdgeStyle;rounded=1;orthogonalLoop=1;jettySize=auto;html=1;entryX=0;entryY=0.5;entryDx=0;entryDy=0;exitX=1;exitY=0.5;exitDx=0;exitDy=0;" edge="1" parent="1" source="CrO1KUGAZWbgiE9FsWsA-28" target="CrO1KUGAZWbgiE9FsWsA-46">
          <mxGeometry relative="1" as="geometry">
            <Array as="points">
              <mxPoint x="510" y="865" />
              <mxPoint x="510" y="1060" />
              <mxPoint x="340" y="1060" />
              <mxPoint x="340" y="1165" />
            </Array>
          </mxGeometry>
        </mxCell>
        <mxCell id="CrO1KUGAZWbgiE9FsWsA-62" style="edgeStyle=orthogonalEdgeStyle;rounded=1;orthogonalLoop=1;jettySize=auto;html=1;" edge="1" parent="1" source="CrO1KUGAZWbgiE9FsWsA-17" target="CrO1KUGAZWbgiE9FsWsA-10">
          <mxGeometry relative="1" as="geometry" />
        </mxCell>
      </root>
    </mxGraphModel>
  </diagram>
</mxfile>
